<svg id="Capa_1" data-name="Capa 1" xmlns="http://www.w3.org/2000/svg" viewBox="0 0 994.12 994.12"><defs><style>.cls-1{fill:#dbf6e9;}.cls-2{fill:#ffe477;}.cls-3{fill:#ffa733;}.cls-4{fill:#8b8992;}.cls-5{fill:#57555c;}.cls-6{fill:#b87fd9;}.cls-7{fill:#d5b4e8;}.cls-8{fill:#e3cef0;}.cls-9{fill:#e67500;}.cls-10{fill:#fff5cc;}.cls-11{fill:#ffdaaa;}</style></defs><circle class="cls-1" cx="497.06" cy="497.06" r="497.06"/><path class="cls-2" d="M886,898.4H374v-512H886Z" transform="translate(-132.94 -145.34)"/><rect class="cls-3" x="497.06" y="241.06" width="256" height="512"/><path class="cls-4" d="M886,536.4H374v-150H886Z" transform="translate(-132.94 -145.34)"/><rect class="cls-5" x="497.06" y="241.06" width="256" height="150"/><path class="cls-2" d="M635.89,536.4H394.11l28.58-100H607.32Z" transform="translate(-132.94 -145.34)"/><circle class="cls-6" cx="678.06" cy="316.06" r="15"/><circle class="cls-7" cx="628.06" cy="316.06" r="15"/><circle class="cls-8" cx="578.06" cy="316.06" r="15"/><path class="cls-9" d="M781,848.4a55,55,0,1,1,55-55A55.06,55.06,0,0,1,781,848.4Z" transform="translate(-132.94 -145.34)"/><rect class="cls-10" x="301.06" y="421.06" width="106" height="30"/><rect class="cls-10" x="331.06" y="481.06" width="176" height="30"/><rect class="cls-10" x="381.06" y="541.06" width="176" height="30"/><rect class="cls-10" x="331.06" y="601.06" width="146" height="30"/><rect class="cls-10" x="331.06" y="661.06" width="76" height="30"/><rect class="cls-10" x="457.06" y="421.06" width="156" height="30"/><polygon class="cls-3" points="497.06 370.46 497.06 391.06 502.94 391.06 497.06 370.46"/><rect class="cls-11" x="497.06" y="421.06" width="116" height="30"/><rect class="cls-11" x="497.06" y="481.06" width="10" height="30"/><rect class="cls-11" x="497.06" y="541.06" width="60" height="30"/></svg>