<svg id="Capa_1" data-name="Capa 1" xmlns="http://www.w3.org/2000/svg" viewBox="0 0 994.12 994.12"><defs><style>.cls-1{fill:#dbf6e9;}.cls-2{fill:#acabb1;}.cls-3{fill:#8b8992;}.cls-4{fill:#57555c;}.cls-5{fill:#9bc9ff;}.cls-6{fill:#009ae5;}.cls-7{fill:#005ece;}.cls-8{fill:#b87fd9;}.cls-9{fill:#8034ad;}.cls-10{fill:#e3cef0;}.cls-11{fill:#d5b4e8;}.cls-12{fill:#e0e0e2;}.cls-13{fill:#ffe477;}.cls-14{fill:#ffa733;}.cls-15{fill:#ff9a00;}.cls-16{fill:#e67500;}.cls-17{fill:#003f8a;}</style></defs><circle class="cls-1" cx="497.06" cy="497.06" r="497.06"/><path class="cls-2" d="M800.11,630.84l-13.64-50.9h0L722.86,690.11h0a52.7,52.7,0,0,0,77.25-59.27Z" transform="translate(-265.33 -141.51)"/><path class="cls-3" d="M812.79,923.61H708.5V824H812.79Zm-69.52-23.17H778V858.72H743.27v41.72Z" transform="translate(-265.33 -141.51)"/><polygon class="cls-4" points="497.05 717.22 512.69 717.22 512.69 758.93 497.05 758.93 497.05 782.1 547.45 782.1 547.45 682.45 497.05 682.45 497.05 717.22"/><path class="cls-5" d="M1022.52,777.61H502.25V499.52h520.27Z" transform="translate(-265.33 -141.51)"/><rect class="cls-6" x="497.05" y="358.01" width="260.13" height="278.09"/><rect class="cls-7" x="408.4" y="758.93" width="173.81" height="34.76"/><path class="cls-8" d="M743.27,777.61H639V540.08H743.27Z" transform="translate(-265.33 -141.51)"/><path class="cls-9" d="M743.27,777.61H691.12V540.08h52.15Z" transform="translate(-265.33 -141.51)"/><path class="cls-3" d="M801.42,493.73H579.66l-45.08-151.8H600.9c23.69,0,51.25,8.48,72.84,23.76V341.93H846.51Z" transform="translate(-265.33 -141.51)"/><polygon class="cls-4" points="581.18 200.43 425.21 200.43 425.21 352.22 536.09 352.22 581.18 200.43"/><path class="cls-10" d="M753.69,574.84H628.55a52.2,52.2,0,0,1-52.14-52.15V459H805.84v63.73A52.2,52.2,0,0,1,753.69,574.84Z" transform="translate(-265.33 -141.51)"/><path class="cls-11" d="M691.12,459V574.84h62.57a52.2,52.2,0,0,0,52.15-52.15V459Z" transform="translate(-265.33 -141.51)"/><path class="cls-12" d="M961.35,479.06A61.07,61.07,0,0,1,945.65,359l59-15.8,15.8,59A61.06,61.06,0,0,1,977.25,477,61.37,61.37,0,0,1,961.35,479.06Z" transform="translate(-265.33 -141.51)"/><path class="cls-13" d="M791.26,817,701,764.9,845.79,514l90.31,52.14Z" transform="translate(-265.33 -141.51)"/><rect class="cls-14" x="696.27" y="652.5" width="289.67" height="52.14" transform="translate(-432.45 926.18) rotate(-60)"/><path class="cls-15" d="M932.1,604,815,536.41,915.92,422.05l64.77,37.4Z" transform="translate(-265.33 -141.51)"/><polygon class="cls-16" points="715.35 317.94 682.97 299.24 608.23 428.69 666.77 462.49 715.35 317.94"/><path class="cls-7" d="M1022.52,858.72H502.25V742.85h520.27Z" transform="translate(-265.33 -141.51)"/><rect class="cls-17" x="497.05" y="601.34" width="260.13" height="115.87"/><rect class="cls-17" x="495.31" y="758.93" width="86.9" height="34.76"/></svg>