<svg id="Capa_1" data-name="Capa 1" xmlns="http://www.w3.org/2000/svg" viewBox="0 0 994.12 994.12"><defs><style>.cls-1{fill:#dbf6e9;}.cls-2{fill:#acabb1;}.cls-3{fill:#e0e0e2;}.cls-4{fill:#e3cef0;}.cls-5{fill:#d5b4e8;}.cls-6{fill:#b87fd9;}.cls-7{fill:#8034ad;}.cls-8{fill:#ffe477;}.cls-9{fill:#ffa733;}.cls-10{fill:#ff9a00;}.cls-11{fill:#e67500;}.cls-12{fill:#8b8992;}.cls-13{fill:#57555c;}</style></defs><circle class="cls-1" cx="497.06" cy="497.06" r="497.06"/><path class="cls-2" d="M819.61,786.07H786.34c0-89.29-72.64-161.93-161.93-161.93V590.86C732,590.86,819.61,678.43,819.61,786.07Z" transform="translate(-82.96 -110.44)"/><path class="cls-3" d="M535.68,624.14c-107.64,0-195.2-87.57-195.2-195.21h33.27c0,89.29,72.64,161.93,161.93,161.93Z" transform="translate(-82.96 -110.44)"/><path class="cls-4" d="M357.11,445.57a61,61,0,1,1,61-61A61.08,61.08,0,0,1,357.11,445.57Z" transform="translate(-82.96 -110.44)"/><path class="cls-5" d="M803,891.43a61,61,0,1,1,61-61A61.07,61.07,0,0,1,803,891.43Z" transform="translate(-82.96 -110.44)"/><path class="cls-6" d="M635.5,663H524.59V552H635.5Z" transform="translate(-82.96 -110.44)"/><rect class="cls-7" x="497.09" y="441.61" width="55.46" height="110.91"/><path class="cls-8" d="M461.76,824.33H352.29L308,747.12a89.46,89.46,0,0,1,8.35-101.51L407,534l90.63,111.65A89.44,89.44,0,0,1,506,747.12Z" transform="translate(-82.96 -110.44)"/><path class="cls-9" d="M497.65,645.61,407,534V824.33h54.74L506,747.12A89.44,89.44,0,0,0,497.65,645.61Z" transform="translate(-82.96 -110.44)"/><path class="cls-10" d="M423.66,657.5v-103L407,534l-16.63,20.49v103a49.91,49.91,0,1,0,33.27,0ZM407,721.18a16.64,16.64,0,1,1,16.64-16.63A16.65,16.65,0,0,1,407,721.18Z" transform="translate(-82.96 -110.44)"/><path class="cls-11" d="M423.66,704.55A16.65,16.65,0,0,1,407,721.18v33.28a49.91,49.91,0,0,0,16.64-97v-103L407,534V687.91A16.65,16.65,0,0,1,423.66,704.55Z" transform="translate(-82.96 -110.44)"/><path class="cls-12" d="M445.84,890.88H368.2a49.91,49.91,0,1,1,0-99.82h77.64a49.91,49.91,0,1,1,0,99.82Z" transform="translate(-82.96 -110.44)"/><path class="cls-13" d="M445.84,791.06H407v99.82h38.82a49.91,49.91,0,1,0,0-99.82Z" transform="translate(-82.96 -110.44)"/></svg>