<?xml version="1.0" encoding="iso-8859-1"?>
<!-- Generator: Adobe Illustrator 19.0.0, SVG Export Plug-In . SVG Version: 6.00 Build 0)  -->
<svg version="1.1" id="Capa_1" xmlns="http://www.w3.org/2000/svg" xmlns:xlink="http://www.w3.org/1999/xlink" x="0px" y="0px"
	 viewBox="0 0 512 512" style="enable-background:new 0 0 512 512;" xml:space="preserve">
<path style="fill:#ACABB1;" d="M472.004,416.984h-29.997c0-80.497-65.488-145.985-145.985-145.985v-29.997
	C393.059,241.002,472.004,319.947,472.004,416.984z"/>
<path style="fill:#E0E0E2;" d="M216.03,270.999c-97.037,0-175.982-78.945-175.982-175.982h29.997
	c0,80.497,65.488,145.985,145.985,145.985V270.999z"/>
<path style="fill:#E3CEF0;" d="M55.046,110.015c-30.324,0-54.995-24.671-54.995-54.995S24.722,0.026,55.046,0.026
	S110.04,24.696,110.04,55.02S85.371,110.015,55.046,110.015z"/>
<path style="fill:#D5B4E8;" d="M457.006,511.975c-30.324,0-54.995-24.671-54.995-54.995s24.671-54.995,54.995-54.995
	S512,426.656,512,456.98S487.331,511.975,457.006,511.975z"/>
<path style="fill:#B87FD9;" d="M306.021,305.995h-99.99v-99.99h99.99V305.995z"/>
<rect x="256.025" y="206.009" style="fill:#8034AD;" width="49.995" height="99.99"/>
<path style="fill:#FFE477;" d="M149.388,451.481H50.695l-39.888-69.609c-16.781-29.287-13.828-65.207,7.526-91.513l81.708-100.653
	l81.708,100.652c21.354,26.305,24.309,62.227,7.526,91.513L149.388,451.481z"/>
<path style="fill:#FFA733;" d="M181.749,290.359l-81.708-100.652v261.774h49.347l39.888-69.608
	C206.058,352.585,203.104,316.664,181.749,290.359z"/>
<path style="fill:#FF9A00;" d="M115.04,301.076v-92.893l-14.999-18.476l-14.999,18.476v92.893
	c-17.457,6.191-29.997,22.863-29.997,42.416c0,24.811,20.185,44.996,44.996,44.996s44.996-20.185,44.996-44.996
	C145.037,323.938,132.497,307.267,115.04,301.076z M100.041,358.49c-8.27,0-14.999-6.728-14.999-14.999s6.728-14.999,14.999-14.999
	s14.999,6.728,14.999,14.999S108.312,358.49,100.041,358.49z"/>
<path style="fill:#E67500;" d="M115.04,343.491c0,8.27-6.728,14.999-14.999,14.999v29.997c24.811,0,44.996-20.185,44.996-44.996
	c0-19.553-12.54-36.224-29.997-42.416v-92.893l-14.999-18.476v138.786C108.312,328.493,115.04,335.221,115.04,343.491z"/>
<path style="fill:#8B8992;" d="M135.038,511.475H65.045c-24.811,0-44.996-20.185-44.996-44.996s20.185-44.996,44.996-44.996h69.993
	c24.811,0,44.996,20.185,44.996,44.996S159.849,511.475,135.038,511.475z"/>
<path style="fill:#57555C;" d="M135.038,421.484h-34.997v89.991h34.997c24.811,0,44.996-20.185,44.996-44.996
	S159.849,421.484,135.038,421.484z"/>
<g>
</g>
<g>
</g>
<g>
</g>
<g>
</g>
<g>
</g>
<g>
</g>
<g>
</g>
<g>
</g>
<g>
</g>
<g>
</g>
<g>
</g>
<g>
</g>
<g>
</g>
<g>
</g>
<g>
</g>
</svg>
